Patient4_TMGait_0pt4_01_right_01_EMG.mot
version=1
nRows=33
nColumns=33
inDegrees=no
endheader
time	1LAddLong	2LGlutMax	3LGlutMed	4LIliopsoas	5LSemiMemb	6LBicFemLong	7LRecFem	8LVastMed	9LVastLat	10LGasMed	11LTibAnt	12lTibPost	13LPeroneusLong	14LSol	15LExtDigLong	16LFlexDigLong	17RAddLong	18RGlutMax	19RGlutMed	20RIliopsoas	21RSemiMemb	22RBicFemLong	23RRecFem	24RVastMed	25RVastLat	26RGasMed	27RTibAnt	28RTibPost	29RPeroneusLong	30RSol	31RExtDigLong	32RFlexDigLong
1.705	-0.005341	-0.094147	-0.1004	0.015869	0.15823	-0.15259	0.066681	-0.013428	0.089111	-0.006714	-0.072632	0.019989	-0.04837	0.041199	-0.034485	-0.019226	0.032501	-0.062408	0.008545	-0.032654	-0.039215	-0.094757	-0.23651	-0.016479	0.016327	-0.025635	0.1503	-0.019379	0.7135	-0.044708	0.001068	-0.007324
1.706	0.006409	-0.038757	0.048218	0.012054	0.11948	-0.15243	0.098572	-0.035858	0.009308	-0.004272	-0.020447	0.014038	-0.069885	0.049591	-0.16129	-0.01297	0.037537	-0.037537	0.037994	0.040588	-0.050812	-0.11292	-0.27847	0.010834	0.016479	-0.000305	-0.75089	-0.009613	1.3947	-0.14465	-0.006256	-0.016785
1.707	0.020447	-0.008545	0.063629	0.009155	0.060425	-0.14694	0.072174	-0.022125	-0.059204	0.002747	0.002136	0.032806	-0.030975	0.089417	-0.25803	-0.013275	0.045929	0.007019	0.042572	0.030212	-0.13306	-0.064087	-0.25696	-0.011444	0.020599	0.013428	-0.86807	-0.011597	1.1865	-0.23819	0.007935	-0.00885
1.708	0.013733	-0.045776	-0.048828	0.020905	0.067902	-0.1915	-0.05188	-0.026093	-0.079651	0.001221	-0.000916	0.032043	0.084839	0.091095	-0.15488	-0.016479	0.033264	-0.027161	0.086365	0.000458	-0.06134	0.027161	-0.24277	-0.015259	0.006561	0.008698	-0.5835	-0.009613	-0.064545	-0.20264	-0.000305	-0.017242
1.709	0.022278	-0.056	-0.045776	0.032349	-0.061035	-0.070648	-0.13016	-0.005493	-0.28976	-0.005798	-0.003204	0.02121	0.079803	0.077362	-0.12695	-0.021362	-0.008545	0.014496	0.069122	0.008698	-0.014648	0.053406	-0.32257	0.084839	0.011749	-0.002289	-0.14801	-0.017242	-0.58823	-0.10193	-0.001221	-0.018311
1.71	0.019989	-0.15488	-0.11093	0.021057	0.001678	0.15884	-0.12253	0.005035	-0.4892	-0.002747	-0.007477	0.001678	-0.0737	0.045929	-0.081482	-0.033875	-0.010071	-0.052795	-0.018311	0.034027	0.17502	0.10849	-0.28717	0.061798	0.005798	-0.011292	0.35523	-0.017242	-0.55832	-0.028839	0.001984	-0.026093
1.711	0.034332	-0.16449	0.002289	0.006714	0.056458	0.31403	-0.13596	-0.018921	-0.57327	-0.034637	-0.010223	0.014191	-0.078583	0.061493	-0.036011	-0.035095	0.005035	-0.051422	0.03952	0.027771	-0.036621	0.14862	-0.27451	0.001831	-0.004272	-0.000458	0.41855	-0.01297	0.46417	-0.094757	-0.001678	-0.01709
1.712	0.031433	-0.14008	0.016632	0.007477	0.023956	0.3186	-0.08255	-0.030365	-0.48401	-0.035248	0.013733	0.017853	-0.043945	0.086212	-0.007172	-0.017395	-0.014648	0.010834	0.032196	0.008698	-0.16159	0.062408	-0.27832	-0.031891	0.007629	0.005341	0.13992	-0.014038	0.2272	-0.096893	-0.003204	-0.013733
1.713	0.003357	-0.076599	-0.077209	0.029602	-0.059204	0.27023	0.035095	-0.017242	-0.32318	-0.002289	0.042725	0.017853	-0.02243	0.11063	0.04715	-0.02121	-0.036926	-0.032043	0.10452	-0.050964	-0.084839	-0.031281	-0.33814	0.035706	0.005951	0.009766	0.15442	-0.020142	-0.26199	-0.023041	-0.003662	-0.011292
1.714	-0.012817	-0.039368	-0.04837	0.024872	-0.004425	0.37125	0.073853	-0.006409	-0.25986	0.015259	0.028839	0.018005	-0.02594	0.1207	0.085602	-0.025787	-0.04776	0.003204	0.054016	0.029602	0.36423	-0.028839	-0.32394	0.063782	0.025024	0.021515	0.24124	-0.006256	-0.32608	0.054321	-0.002136	-0.016785
1.715	-0.029755	-0.009918	-0.025635	0.022125	0.068817	0.44296	0.054016	0.005798	-0.19867	0.019531	0.017242	0.013275	-0.056915	0.10651	0.049591	-0.028687	-0.018311	-0.028992	0.038757	0.07309	0.22781	0.052948	-0.30456	0.019379	0.011902	0.029297	0.25665	-0.007935	-0.054932	0.13565	-0.001984	-0.014343
1.716	-0.023346	-0.062866	-0.05249	0.009918	0.003204	0.2948	0.07309	0.019073	-0.15366	0.013275	0.01297	0.009918	-0.066681	0.10056	0.038605	-0.040588	0.018616	-0.071259	0.04776	0.037079	0.089417	0.15167	-0.30472	-0.059204	0.005341	0.020599	0.26154	-0.012665	-0.052643	0.19653	-0.006104	-0.012817
1.717	0.001678	-0.003662	-0.041351	0.010071	-0.10925	-0.1474	0.088959	0.018616	-0.041962	-0.001526	0.03891	0.005646	-0.065002	0.037994	0.14633	-0.037537	0.052032	-0.057068	0.054779	0.020294	0.06134	0.1265	-0.27527	-0.039673	0.007629	0.000916	0.19516	-0.00885	-0.2446	0.16266	-0.004883	-0.011749
1.718	0.027924	0.028381	-0.000763	0.001526	-0.007782	-0.57404	0.12482	0.001221	-0.087585	-0.014954	-0.002899	0.007629	-0.066376	0.03006	0.02533	-0.028992	0.059662	-0.021057	0.015717	-0.015717	0.090179	0.1091	-0.32318	-0.068512	0.004272	-0.012817	0.13458	-0.009155	-0.26123	0.13077	-0.004578	-0.014954
1.719	0.038452	0.05722	-0.075989	0.021973	0.13306	-0.5455	0.1564	-0.007477	-0.12344	0.001831	0.037994	0.003815	-0.048218	0.069275	-0.063019	-0.040436	0.058594	-0.088806	0.068207	-0.018158	0.1535	0.059662	-0.32928	-0.090485	0.01236	-0.016632	-0.028839	-0.014038	0.48752	0.094604	-0.003357	-0.020752
1.72	0.036011	0.089722	-0.19424	0.038147	0.12299	-0.15747	0.17532	-0.004272	-0.16052	-0.000763	0.03891	-0.00824	-0.04364	0.086517	-0.046997	-0.037994	0.053558	-0.060425	0.034332	0.001984	0.15411	-0.00946	-0.30228	-0.015259	0.018311	-0.018616	-0.026245	-0.011292	0.61111	0.14343	-0.001831	-0.021667
1.721	0.02655	0.10376	-0.22217	0.030212	0.047913	0.012817	0.14114	0.000458	-0.18066	-0.033112	0.034485	0.000153	-0.049286	0.1358	-0.033417	-0.037079	0.047455	-0.092773	-0.039825	-0.051117	-0.024261	0.075073	-0.36041	-0.018921	0.029297	-0.007629	0.014191	-0.010071	0.38803	0.17227	-0.002899	-0.026855
1.722	0.017548	0.077972	-0.096283	0.018311	-0.018005	-0.32044	0.020599	0.005798	-0.16571	-0.083008	0.020599	-0.016785	-0.070953	0.17258	-0.032043	-0.037231	0.00412	-0.12848	-0.094452	-0.071869	-0.065155	0.13412	-0.38742	0.007324	0.010986	-0.010223	0.099487	-0.009613	0.060425	0.18005	-0.000916	-0.023193
1.723	0.007477	0.097351	0.087433	0.024567	-0.052795	-0.3537	-0.039063	0.00351	-0.16541	-0.070801	0.007629	-0.013733	-0.06958	0.19608	-0.009766	-0.023499	0.010529	-0.098114	0.010986	-0.055542	0.007019	0.022736	-0.33402	-0.037537	-0.005035	-0.0177	0.14771	0.006866	-0.034943	0.22186	0.00061	-0.024567
1.724	0.004883	0.11322	0.15274	0.010986	-0.0354	-0.20371	-0.061188	-0.000153	-0.085907	-0.042877	0.006866	-0.026245	-0.0177	0.17242	0.002899	-0.021057	0.000916	-0.062256	0.069733	-0.040894	0.050354	-0.037079	-0.3894	-0.053406	0.0177	-0.015717	0.12528	0.007935	0.002899	0.26032	0.000458	-0.027771
1.725	0.010376	0.16235	0.21271	0.006256	0.10529	-0.077362	-0.090179	-0.014038	-0.043335	-0.010071	0.000916	-0.026093	-0.013275	0.15381	0.009155	-0.028839	0.047302	-0.13336	0.045471	0.0177	0.103	-0.009918	-0.38422	-0.015259	0.020447	-0.008545	-0.066833	0.00412	-0.055237	0.1709	0.000763	-0.023956
1.726	0.003967	0.15167	0.099945	0.017853	0.028839	0.002289	-0.098572	-0.01236	-0.020752	0.00412	0.006256	-0.035095	-0.063477	0.083923	-0.003662	-1.8684	0.031586	-0.14694	-0.036163	0.068512	-0.13336	0.062714	-0.41428	0.037842	0.032654	-0.013275	-0.19501	0.005341	-0.038757	0.003204	-0.000916	-0.029297
1.727	-0.015411	0.15762	0.028687	0.049286	-0.065613	0.060577	-0.031738	-0.006866	-0.068665	-0.094604	-0.005341	-0.033417	-0.045319	0.036774	-0.003357	0.51132	0.014191	-0.1268	-0.044556	-0.027313	-0.31906	0.075836	-0.37857	-0.025482	0.027313	-0.006409	-0.045624	0.007172	0.14999	-0.25681	-0.00061	-0.033569
1.728	-0.032806	0.16083	-0.034943	0.007019	-0.078583	0.066376	-0.003662	0.002289	-0.045471	-0.31494	-0.005341	-0.035858	-0.03418	0.061798	-0.001373	0.68924	0.00824	-0.14084	-0.027466	-0.1442	-0.39169	0.000458	-0.39291	-0.009766	0.020905	-0.002594	0.075073	-0.027924	0.28839	-0.3862	-0.002747	-0.02243
1.729	-0.027771	0.2327	-0.059967	0.009613	-0.077209	0.11597	0.00351	0.013733	-0.009003	-0.27268	-0.000763	-0.027618	-0.084076	0.11917	-0.00824	0.014801	-0.036774	-0.0737	-0.061798	-0.088348	-0.33752	-0.019684	-0.36636	-0.03891	0.01236	0.003204	0.29526	-0.094757	0.29037	-0.074463	-0.006714	-0.020905
1.73	-0.027771	0.242	0.012054	0.020599	-0.11124	0.1033	-0.028534	0.07782	-0.036011	-0.031433	-0.000458	-0.023956	-0.078735	0.1181	-0.00824	-0.32593	-0.059967	-0.089417	-0.045471	0.032959	-0.068665	0.0177	-0.40054	-0.02182	0.019989	-0.005798	0.22766	0.03418	0.14633	0.2681	0.000305	-0.016022
1.731	-0.030823	0.25726	0.040436	0.018616	-0.089111	0.11749	-0.002899	0.061951	-0.04776	0.041809	-0.005646	-0.018768	-0.09903	0.098877	-0.00412	0.41031	-0.088501	-0.17212	-0.013275	0.14069	0.25696	-0.030212	-0.3801	-0.01358	0.020447	-0.008545	0.64056	0.018158	-0.20935	0.094757	-0.000458	-0.013885
1.732	-0.022736	0.33722	-0.032196	0.006714	0.049133	0.001984	0.065308	0.016785	-0.103	0.020294	-0.005951	0.041504	-0.12711	0.088806	0.002594	0.002594	-0.058746	-0.19898	-0.073853	0.24719	0.26138	-0.083771	-0.33295	-0.088501	0.014496	-0.015259	0.60333	-0.002136	-0.79483	-0.047455	0.004425	-0.022583
1.733	-0.020447	0.43533	-0.068359	0.000916	0.010986	-0.00885	-0.027924	0.006866	-0.075226	-0.051575	-0.018921	0.095978	-0.16602	0.10346	0.012665	0.012207	-0.007935	-0.21927	-0.18341	0.26245	0.15396	-0.032654	-0.33188	-0.084991	0.012817	-0.016174	0.22446	-0.003052	-0.49072	-0.092621	-0.003204	-0.02243
1.734	-0.023499	0.4512	-0.003967	0.016785	0.013275	0.14175	-0.1796	-0.008545	0.078888	-0.097809	-0.015564	-0.14847	-0.14145	0.075531	0.014343	-0.000763	-0.027618	-0.21484	-0.077057	0.10696	-0.056763	0.06958	-0.40268	-0.046844	0.005035	-0.000458	0.029449	-0.001831	0.26977	-0.14938	-0.004272	-0.016479
1.735	-0.023346	0.46906	0.040436	0.016479	-0.050049	0.35461	-0.23086	-0.027771	0.17059	0.061951	-0.019379	-0.058441	-0.1001	-0.063019	-0.001678	-0.014343	-0.02121	-0.15884	-0.055389	-0.025787	-0.053711	0.13672	-0.42252	-0.046234	0.028381	0.01236	-1.113	0.005951	0.50751	-0.32471	-0.001831	-0.006714
1.736	-0.008392	0.49194	0.12268	0.011749	-0.2002	0.36499	-0.20264	-0.061493	0.14908	0.072784	-0.02121	-0.022888	-0.077362	-0.28458	-0.010223	-0.018158	0.005188	-0.25711	0.066223	-0.050812	-0.052643	0.085144	-0.41245	-0.009766	0.037842	0.02121	-0.99167	-0.004272	0.27283	-0.3035	0.002594	-0.014954
1.737	0.017395	0.4689	0.054626	0.019226	-0.11169	0.27878	-0.17624	-0.07019	-0.037231	-0.059509	-0.019684	-0.027924	-0.027771	-0.37399	-0.009308	-0.01358	0.005798	-0.24704	0.005035	-0.026093	0.14069	0.11353	-0.41962	0.014801	0.027466	0.015411	-0.51376	-0.010376	0.31647	-0.44128	0.001373	-0.01297
